<?xml version="1.0" encoding="us-ascii" standalone="no"?><svg xmlns="http://www.w3.org/2000/svg" xmlns:xlink="http://www.w3.org/1999/xlink" contentStyleType="text/css" height="544px" preserveAspectRatio="none" style="width:539px;height:544px;background:#FFFFFF;" version="1.1" viewBox="0 0 539 544" width="539px" zoomAndPan="magnify"><defs/><g><text fill="#000000" font-family="sans-serif" font-size="14" font-weight="bold" lengthAdjust="spacing" textLength="153.625" x="189.6875" y="29.5332">&#25903;&#20986;&#21066;&#38500;&#20966;&#29702; (DELETE)</text><rect fill="#ADD8E6" height="494.2188" style="stroke:#181818;stroke-width:0.5;" width="95" x="105" y="44.6094"/><text fill="#000000" font-family="sans-serif" font-size="13" font-weight="bold" lengthAdjust="spacing" textLength="26.4063" x="139.2969" y="58.1045">UI&#23652;</text><rect fill="#90EE90" height="494.2188" style="stroke:#181818;stroke-width:0.5;" width="117" x="335" y="44.6094"/><text fill="#000000" font-family="sans-serif" font-size="13" font-weight="bold" lengthAdjust="spacing" textLength="61.4063" x="362.7969" y="58.1045">Service&#23652;</text><rect fill="#FFFFE0" height="494.2188" style="stroke:#181818;stroke-width:0.5;" width="79" x="454" y="44.6094"/><text fill="#000000" font-family="sans-serif" font-size="13" font-weight="bold" lengthAdjust="spacing" textLength="68.4063" x="459.2969" y="58.1045">Firebase&#23652;</text><rect fill="#FFFFFF" height="294.6484" style="stroke:#181818;stroke-width:1.0;" width="10" x="147.5" y="153.5703"/><rect fill="#FFFFFF" height="91.0547" style="stroke:#181818;stroke-width:1.0;" width="10" x="388.5" y="183.9219"/><rect fill="#FFFFFF" height="30.3516" style="stroke:#181818;stroke-width:1.0;" width="10" x="488.5" y="214.2734"/><rect fill="none" height="151.2422" style="stroke:#000000;stroke-width:1.5;" width="281.5" x="10" y="289.9766"/><line style="stroke:#181818;stroke-width:0.5;stroke-dasharray:5.0,5.0;" x1="37" x2="37" y1="121.2188" y2="458.2188"/><line style="stroke:#181818;stroke-width:0.5;stroke-dasharray:5.0,5.0;" x1="152" x2="152" y1="121.2188" y2="458.2188"/><line style="stroke:#181818;stroke-width:0.5;stroke-dasharray:5.0,5.0;" x1="393" x2="393" y1="121.2188" y2="458.2188"/><line style="stroke:#181818;stroke-width:0.5;stroke-dasharray:5.0,5.0;" x1="493" x2="493" y1="121.2188" y2="458.2188"/><text fill="#000000" font-family="sans-serif" font-size="14" lengthAdjust="spacing" textLength="29" x="20" y="118.1426">User</text><ellipse cx="37.5" cy="52.1094" fill="#E2E2F0" rx="8" ry="8" style="stroke:#181818;stroke-width:0.5;"/><path d="M37.5,60.1094 L37.5,87.1094 M24.5,68.1094 L50.5,68.1094 M37.5,87.1094 L24.5,102.1094 M37.5,87.1094 L50.5,102.1094 " fill="none" style="stroke:#181818;stroke-width:0.5;"/><text fill="#000000" font-family="sans-serif" font-size="14" lengthAdjust="spacing" textLength="29" x="20" y="471.752">User</text><ellipse cx="37.5" cy="483.3281" fill="#E2E2F0" rx="8" ry="8" style="stroke:#181818;stroke-width:0.5;"/><path d="M37.5,491.3281 L37.5,518.3281 M24.5,499.3281 L50.5,499.3281 M37.5,518.3281 L24.5,533.3281 M37.5,518.3281 L50.5,533.3281 " fill="none" style="stroke:#181818;stroke-width:0.5;"/><rect fill="#E2E2F0" height="31.6094" rx="2.5" ry="2.5" style="stroke:#181818;stroke-width:0.5;" width="87" x="109" y="88.6094"/><text fill="#000000" font-family="sans-serif" font-size="14" lengthAdjust="spacing" textLength="73" x="116" y="110.1426">GroupPage</text><rect fill="#E2E2F0" height="31.6094" rx="2.5" ry="2.5" style="stroke:#181818;stroke-width:0.5;" width="87" x="109" y="457.2188"/><text fill="#000000" font-family="sans-serif" font-size="14" lengthAdjust="spacing" textLength="73" x="116" y="478.752">GroupPage</text><rect fill="#E2E2F0" height="31.6094" rx="2.5" ry="2.5" style="stroke:#181818;stroke-width:0.5;" width="109" x="339" y="88.6094"/><text fill="#000000" font-family="sans-serif" font-size="14" lengthAdjust="spacing" textLength="95" x="346" y="110.1426">DeleteExpense</text><rect fill="#E2E2F0" height="31.6094" rx="2.5" ry="2.5" style="stroke:#181818;stroke-width:0.5;" width="109" x="339" y="457.2188"/><text fill="#000000" font-family="sans-serif" font-size="14" lengthAdjust="spacing" textLength="95" x="346" y="478.752">DeleteExpense</text><rect fill="#E2E2F0" height="31.6094" rx="2.5" ry="2.5" style="stroke:#181818;stroke-width:0.5;" width="71" x="458" y="88.6094"/><text fill="#000000" font-family="sans-serif" font-size="14" lengthAdjust="spacing" textLength="57" x="465" y="110.1426">Firestore</text><rect fill="#E2E2F0" height="31.6094" rx="2.5" ry="2.5" style="stroke:#181818;stroke-width:0.5;" width="71" x="458" y="457.2188"/><text fill="#000000" font-family="sans-serif" font-size="14" lengthAdjust="spacing" textLength="57" x="465" y="478.752">Firestore</text><rect fill="#FFFFFF" height="294.6484" style="stroke:#181818;stroke-width:1.0;" width="10" x="147.5" y="153.5703"/><rect fill="#FFFFFF" height="91.0547" style="stroke:#181818;stroke-width:1.0;" width="10" x="388.5" y="183.9219"/><rect fill="#FFFFFF" height="30.3516" style="stroke:#181818;stroke-width:1.0;" width="10" x="488.5" y="214.2734"/><polygon fill="#181818" points="135.5,149.5703,145.5,153.5703,135.5,157.5703,139.5,153.5703" style="stroke:#181818;stroke-width:1.0;"/><line style="stroke:#181818;stroke-width:1.0;" x1="37.5" x2="141.5" y1="153.5703" y2="153.5703"/><text fill="#000000" font-family="sans-serif" font-size="13" lengthAdjust="spacing" textLength="91" x="44.5" y="148.7139">&#21066;&#38500;&#12508;&#12479;&#12531;&#25276;&#19979;</text><polygon fill="#181818" points="376.5,179.9219,386.5,183.9219,376.5,187.9219,380.5,183.9219" style="stroke:#181818;stroke-width:1.0;"/><line style="stroke:#181818;stroke-width:1.0;" x1="157.5" x2="382.5" y1="183.9219" y2="183.9219"/><text fill="#000000" font-family="sans-serif" font-size="13" lengthAdjust="spacing" textLength="212" x="164.5" y="179.0654">DeleteExpense(projectId, expenseId)</text><polygon fill="#181818" points="476.5,210.2734,486.5,214.2734,476.5,218.2734,480.5,214.2734" style="stroke:#181818;stroke-width:1.0;"/><line style="stroke:#181818;stroke-width:1.0;" x1="398.5" x2="482.5" y1="214.2734" y2="214.2734"/><text fill="#000000" font-family="sans-serif" font-size="13" lengthAdjust="spacing" textLength="66" x="405.5" y="209.417">deleteDoc()</text><polygon fill="#181818" points="409.5,240.625,399.5,244.625,409.5,248.625,405.5,244.625" style="stroke:#181818;stroke-width:1.0;"/><line style="stroke:#181818;stroke-width:1.0;stroke-dasharray:2.0,2.0;" x1="403.5" x2="492.5" y1="244.625" y2="244.625"/><text fill="#000000" font-family="sans-serif" font-size="13" lengthAdjust="spacing" textLength="32" x="415.5" y="239.7686">result</text><polygon fill="#181818" points="168.5,270.9766,158.5,274.9766,168.5,278.9766,164.5,274.9766" style="stroke:#181818;stroke-width:1.0;"/><line style="stroke:#181818;stroke-width:1.0;stroke-dasharray:2.0,2.0;" x1="162.5" x2="392.5" y1="274.9766" y2="274.9766"/><text fill="#000000" font-family="sans-serif" font-size="13" lengthAdjust="spacing" textLength="47" x="174.5" y="270.1201">isDelete</text><path d="M10,289.9766 L71,289.9766 L71,298.3281 L61,308.3281 L10,308.3281 L10,289.9766 " fill="#EEEEEE" style="stroke:#000000;stroke-width:1.5;"/><rect fill="none" height="151.2422" style="stroke:#000000;stroke-width:1.5;" width="281.5" x="10" y="289.9766"/><text fill="#000000" font-family="sans-serif" font-size="13" font-weight="bold" lengthAdjust="spacing" textLength="16" x="25" y="304.4717">alt</text><text fill="#000000" font-family="sans-serif" font-size="11" font-weight="bold" lengthAdjust="spacing" textLength="53.375" x="86" y="303.3955">[&#21066;&#38500;&#25104;&#21151;]</text><line style="stroke:#181818;stroke-width:1.0;" x1="157.5" x2="199.5" y1="330.6797" y2="330.6797"/><line style="stroke:#181818;stroke-width:1.0;" x1="199.5" x2="199.5" y1="330.6797" y2="343.6797"/><line style="stroke:#181818;stroke-width:1.0;" x1="158.5" x2="199.5" y1="343.6797" y2="343.6797"/><polygon fill="#181818" points="168.5,339.6797,158.5,343.6797,168.5,347.6797,164.5,343.6797" style="stroke:#181818;stroke-width:1.0;"/><text fill="#000000" font-family="sans-serif" font-size="13" lengthAdjust="spacing" textLength="115" x="164.5" y="325.8232">expenses state&#26356;&#26032;</text><polygon fill="#181818" points="48.5,370.0313,38.5,374.0313,48.5,378.0313,44.5,374.0313" style="stroke:#181818;stroke-width:1.0;"/><line style="stroke:#181818;stroke-width:1.0;stroke-dasharray:2.0,2.0;" x1="42.5" x2="146.5" y1="374.0313" y2="374.0313"/><text fill="#000000" font-family="sans-serif" font-size="13" lengthAdjust="spacing" textLength="38" x="54.5" y="369.1748">UI&#26356;&#26032;</text><line style="stroke:#000000;stroke-width:1.0;stroke-dasharray:2.0,2.0;" x1="10" x2="291.5" y1="383.0313" y2="383.0313"/><text fill="#000000" font-family="sans-serif" font-size="11" font-weight="bold" lengthAdjust="spacing" textLength="53.375" x="15" y="394.4502">[&#21066;&#38500;&#22833;&#25943;]</text><line style="stroke:#181818;stroke-width:1.0;" x1="157.5" x2="199.5" y1="420.2188" y2="420.2188"/><line style="stroke:#181818;stroke-width:1.0;" x1="199.5" x2="199.5" y1="420.2188" y2="433.2188"/><line style="stroke:#181818;stroke-width:1.0;" x1="158.5" x2="199.5" y1="433.2188" y2="433.2188"/><polygon fill="#181818" points="168.5,429.2188,158.5,433.2188,168.5,437.2188,164.5,433.2188" style="stroke:#181818;stroke-width:1.0;"/><text fill="#000000" font-family="sans-serif" font-size="13" lengthAdjust="spacing" textLength="51" x="164.5" y="415.3623">alert&#34920;&#31034;</text><!--SRC=[VPBFIiD048Vl-nH3lRHWNw073z9O0Zq8seF7RJBKbIK9kzlQimMhzTA3Vn054O9ugqKFKWGVfYRLjt3J1hC9nToIcU_Rtyn6CSKHuij9D9n5vwEVsp0QFYt6fr2kMqrhtweGGXtb2sX958Iq_JwKMdOq3KkmqMITGxNDkqW2AXHpM40z1GtXTuDTsa62dWiQIAaz53tce84s1AANO-l8KQ7L3z2JHNw72MnJQGeEa7F_E6T8kgJEQz19SgXkPS6W1gjHvuFx-SddVF0QZpw-tY-IILcFAZHc81cb5RbyMfDxBmV2Fq97sUucuEgJxLOoQNuuadTf-LzqBNQNnRhlb0r1DXl9UgjhOkbQbolYuZgqS6vXCKokwYPS24wvIlSNdusZqGC1_UJMP0hJJKYGIhlYkxVu-gL8Q6HvIJLesMa7SXqk_I73QNnry_yfbADGtu_FYt2MN3mnusUN-Gi0]--></g></svg>