<?xml version="1.0" encoding="us-ascii" standalone="no"?><svg xmlns="http://www.w3.org/2000/svg" xmlns:xlink="http://www.w3.org/1999/xlink" contentStyleType="text/css" height="748px" preserveAspectRatio="none" style="width:558px;height:748px;background:#FFFFFF;" version="1.1" viewBox="0 0 558 748" width="558px" zoomAndPan="magnify"><defs/><g><text fill="#000000" font-family="sans-serif" font-size="14" font-weight="bold" lengthAdjust="spacing" textLength="155.625" x="198.1875" y="29.5332">&#25903;&#20986;&#36861;&#21152;&#20966;&#29702; (CREATE)</text><rect fill="#ADD8E6" height="697.9766" style="stroke:#181818;stroke-width:0.5;" width="266" x="103" y="44.6094"/><text fill="#000000" font-family="sans-serif" font-size="13" font-weight="bold" lengthAdjust="spacing" textLength="26.4063" x="222.7969" y="58.1045">UI&#23652;</text><rect fill="#90EE90" height="697.9766" style="stroke:#181818;stroke-width:0.5;" width="100" x="371" y="44.6094"/><text fill="#000000" font-family="sans-serif" font-size="13" font-weight="bold" lengthAdjust="spacing" textLength="61.4063" x="390.2969" y="58.1045">Service&#23652;</text><rect fill="#FFFFE0" height="697.9766" style="stroke:#181818;stroke-width:0.5;" width="79" x="473" y="44.6094"/><text fill="#000000" font-family="sans-serif" font-size="13" font-weight="bold" lengthAdjust="spacing" textLength="68.4063" x="478.2969" y="58.1045">Firebase&#23652;</text><rect fill="#FFFFFF" height="498.4063" style="stroke:#181818;stroke-width:1.0;" width="10" x="165.5" y="153.5703"/><rect fill="#FFFFFF" height="91.0547" style="stroke:#181818;stroke-width:1.0;" width="10" x="416" y="300.9766"/><rect fill="#FFFFFF" height="30.3516" style="stroke:#181818;stroke-width:1.0;" width="10" x="507.5" y="331.3281"/><rect fill="none" height="237.9453" style="stroke:#000000;stroke-width:1.5;" width="322.5" x="10" y="407.0313"/><line style="stroke:#181818;stroke-width:0.5;stroke-dasharray:5.0,5.0;" x1="37" x2="37" y1="121.2188" y2="661.9766"/><line style="stroke:#181818;stroke-width:0.5;stroke-dasharray:5.0,5.0;" x1="170" x2="170" y1="121.2188" y2="661.9766"/><line style="stroke:#181818;stroke-width:0.5;stroke-dasharray:5.0,5.0;" x1="332" x2="332" y1="121.2188" y2="661.9766"/><line style="stroke:#181818;stroke-width:0.5;stroke-dasharray:5.0,5.0;" x1="421" x2="421" y1="121.2188" y2="661.9766"/><line style="stroke:#181818;stroke-width:0.5;stroke-dasharray:5.0,5.0;" x1="512" x2="512" y1="121.2188" y2="661.9766"/><text fill="#000000" font-family="sans-serif" font-size="14" lengthAdjust="spacing" textLength="29" x="20" y="118.1426">User</text><ellipse cx="37.5" cy="52.1094" fill="#E2E2F0" rx="8" ry="8" style="stroke:#181818;stroke-width:0.5;"/><path d="M37.5,60.1094 L37.5,87.1094 M24.5,68.1094 L50.5,68.1094 M37.5,87.1094 L24.5,102.1094 M37.5,87.1094 L50.5,102.1094 " fill="none" style="stroke:#181818;stroke-width:0.5;"/><text fill="#000000" font-family="sans-serif" font-size="14" lengthAdjust="spacing" textLength="29" x="20" y="675.5098">User</text><ellipse cx="37.5" cy="687.0859" fill="#E2E2F0" rx="8" ry="8" style="stroke:#181818;stroke-width:0.5;"/><path d="M37.5,695.0859 L37.5,722.0859 M24.5,703.0859 L50.5,703.0859 M37.5,722.0859 L24.5,737.0859 M37.5,722.0859 L50.5,737.0859 " fill="none" style="stroke:#181818;stroke-width:0.5;"/><rect fill="#E2E2F0" height="31.6094" rx="2.5" ry="2.5" style="stroke:#181818;stroke-width:0.5;" width="127" x="107" y="88.6094"/><text fill="#000000" font-family="sans-serif" font-size="14" lengthAdjust="spacing" textLength="113" x="114" y="110.1426">ExpenseNewPage</text><rect fill="#E2E2F0" height="31.6094" rx="2.5" ry="2.5" style="stroke:#181818;stroke-width:0.5;" width="127" x="107" y="660.9766"/><text fill="#000000" font-family="sans-serif" font-size="14" lengthAdjust="spacing" textLength="113" x="114" y="682.5098">ExpenseNewPage</text><rect fill="#E2E2F0" height="31.6094" rx="2.5" ry="2.5" style="stroke:#181818;stroke-width:0.5;" width="65" x="300" y="88.6094"/><text fill="#000000" font-family="sans-serif" font-size="14" lengthAdjust="spacing" textLength="51" x="307" y="110.1426">Loading</text><rect fill="#E2E2F0" height="31.6094" rx="2.5" ry="2.5" style="stroke:#181818;stroke-width:0.5;" width="65" x="300" y="660.9766"/><text fill="#000000" font-family="sans-serif" font-size="14" lengthAdjust="spacing" textLength="51" x="307" y="682.5098">Loading</text><rect fill="#E2E2F0" height="31.6094" rx="2.5" ry="2.5" style="stroke:#181818;stroke-width:0.5;" width="92" x="375" y="88.6094"/><text fill="#000000" font-family="sans-serif" font-size="14" lengthAdjust="spacing" textLength="78" x="382" y="110.1426">addExpense</text><rect fill="#E2E2F0" height="31.6094" rx="2.5" ry="2.5" style="stroke:#181818;stroke-width:0.5;" width="92" x="375" y="660.9766"/><text fill="#000000" font-family="sans-serif" font-size="14" lengthAdjust="spacing" textLength="78" x="382" y="682.5098">addExpense</text><rect fill="#E2E2F0" height="31.6094" rx="2.5" ry="2.5" style="stroke:#181818;stroke-width:0.5;" width="71" x="477" y="88.6094"/><text fill="#000000" font-family="sans-serif" font-size="14" lengthAdjust="spacing" textLength="57" x="484" y="110.1426">Firestore</text><rect fill="#E2E2F0" height="31.6094" rx="2.5" ry="2.5" style="stroke:#181818;stroke-width:0.5;" width="71" x="477" y="660.9766"/><text fill="#000000" font-family="sans-serif" font-size="14" lengthAdjust="spacing" textLength="57" x="484" y="682.5098">Firestore</text><rect fill="#FFFFFF" height="498.4063" style="stroke:#181818;stroke-width:1.0;" width="10" x="165.5" y="153.5703"/><rect fill="#FFFFFF" height="91.0547" style="stroke:#181818;stroke-width:1.0;" width="10" x="416" y="300.9766"/><rect fill="#FFFFFF" height="30.3516" style="stroke:#181818;stroke-width:1.0;" width="10" x="507.5" y="331.3281"/><polygon fill="#181818" points="153.5,149.5703,163.5,153.5703,153.5,157.5703,157.5,153.5703" style="stroke:#181818;stroke-width:1.0;"/><line style="stroke:#181818;stroke-width:1.0;" x1="37.5" x2="159.5" y1="153.5703" y2="153.5703"/><text fill="#000000" font-family="sans-serif" font-size="13" lengthAdjust="spacing" textLength="91" x="44.5" y="148.7139">&#30331;&#37682;&#12508;&#12479;&#12531;&#25276;&#19979;</text><line style="stroke:#181818;stroke-width:1.0;" x1="175.5" x2="217.5" y1="183.9219" y2="183.9219"/><line style="stroke:#181818;stroke-width:1.0;" x1="217.5" x2="217.5" y1="183.9219" y2="196.9219"/><line style="stroke:#181818;stroke-width:1.0;" x1="176.5" x2="217.5" y1="196.9219" y2="196.9219"/><polygon fill="#181818" points="186.5,192.9219,176.5,196.9219,186.5,200.9219,182.5,196.9219" style="stroke:#181818;stroke-width:1.0;"/><text fill="#000000" font-family="sans-serif" font-size="13" lengthAdjust="spacing" textLength="110" x="182.5" y="179.0654">isSubmitting = true</text><line style="stroke:#181818;stroke-width:1.0;" x1="175.5" x2="217.5" y1="227.2734" y2="227.2734"/><line style="stroke:#181818;stroke-width:1.0;" x1="217.5" x2="217.5" y1="227.2734" y2="240.2734"/><line style="stroke:#181818;stroke-width:1.0;" x1="176.5" x2="217.5" y1="240.2734" y2="240.2734"/><polygon fill="#181818" points="186.5,236.2734,176.5,240.2734,186.5,244.2734,182.5,240.2734" style="stroke:#181818;stroke-width:1.0;"/><text fill="#000000" font-family="sans-serif" font-size="13" lengthAdjust="spacing" textLength="93" x="182.5" y="222.417">isLoading = true</text><polygon fill="#181818" points="320.5,266.625,330.5,270.625,320.5,274.625,324.5,270.625" style="stroke:#181818;stroke-width:1.0;"/><line style="stroke:#181818;stroke-width:1.0;" x1="175.5" x2="326.5" y1="270.625" y2="270.625"/><text fill="#000000" font-family="sans-serif" font-size="13" lengthAdjust="spacing" textLength="36" x="182.5" y="265.7686">render</text><polygon fill="#181818" points="404,296.9766,414,300.9766,404,304.9766,408,300.9766" style="stroke:#181818;stroke-width:1.0;"/><line style="stroke:#181818;stroke-width:1.0;" x1="175.5" x2="410" y1="300.9766" y2="300.9766"/><text fill="#000000" font-family="sans-serif" font-size="13" lengthAdjust="spacing" textLength="80" x="182.5" y="296.1201">addExpense()</text><polygon fill="#181818" points="495.5,327.3281,505.5,331.3281,495.5,335.3281,499.5,331.3281" style="stroke:#181818;stroke-width:1.0;"/><line style="stroke:#181818;stroke-width:1.0;" x1="426" x2="501.5" y1="331.3281" y2="331.3281"/><text fill="#000000" font-family="sans-serif" font-size="13" lengthAdjust="spacing" textLength="52" x="433" y="326.4717">addDoc()</text><polygon fill="#181818" points="437,357.6797,427,361.6797,437,365.6797,433,361.6797" style="stroke:#181818;stroke-width:1.0;"/><line style="stroke:#181818;stroke-width:1.0;stroke-dasharray:2.0,2.0;" x1="431" x2="511.5" y1="361.6797" y2="361.6797"/><text fill="#000000" font-family="sans-serif" font-size="13" lengthAdjust="spacing" textLength="32" x="443" y="356.8232">result</text><polygon fill="#181818" points="186.5,388.0313,176.5,392.0313,186.5,396.0313,182.5,392.0313" style="stroke:#181818;stroke-width:1.0;"/><line style="stroke:#181818;stroke-width:1.0;stroke-dasharray:2.0,2.0;" x1="180.5" x2="420" y1="392.0313" y2="392.0313"/><text fill="#000000" font-family="sans-serif" font-size="13" lengthAdjust="spacing" textLength="32" x="192.5" y="387.1748">result</text><path d="M10,407.0313 L71,407.0313 L71,415.3828 L61,425.3828 L10,425.3828 L10,407.0313 " fill="#EEEEEE" style="stroke:#000000;stroke-width:1.5;"/><rect fill="none" height="237.9453" style="stroke:#000000;stroke-width:1.5;" width="322.5" x="10" y="407.0313"/><text fill="#000000" font-family="sans-serif" font-size="13" font-weight="bold" lengthAdjust="spacing" textLength="16" x="25" y="421.5264">alt</text><text fill="#000000" font-family="sans-serif" font-size="11" font-weight="bold" lengthAdjust="spacing" textLength="147.375" x="86" y="420.4502">[&#30331;&#37682;&#25104;&#21151; (result.success)]</text><line style="stroke:#181818;stroke-width:1.0;" x1="175.5" x2="217.5" y1="447.7344" y2="447.7344"/><line style="stroke:#181818;stroke-width:1.0;" x1="217.5" x2="217.5" y1="447.7344" y2="460.7344"/><line style="stroke:#181818;stroke-width:1.0;" x1="176.5" x2="217.5" y1="460.7344" y2="460.7344"/><polygon fill="#181818" points="186.5,456.7344,176.5,460.7344,186.5,464.7344,182.5,460.7344" style="stroke:#181818;stroke-width:1.0;"/><text fill="#000000" font-family="sans-serif" font-size="13" lengthAdjust="spacing" textLength="138" x="182.5" y="442.8779">router.push(GroupPage)</text><polygon fill="#181818" points="48.5,487.0859,38.5,491.0859,48.5,495.0859,44.5,491.0859" style="stroke:#181818;stroke-width:1.0;"/><line style="stroke:#181818;stroke-width:1.0;stroke-dasharray:2.0,2.0;" x1="42.5" x2="164.5" y1="491.0859" y2="491.0859"/><text fill="#000000" font-family="sans-serif" font-size="13" lengthAdjust="spacing" textLength="104" x="54.5" y="486.2295">&#12464;&#12523;&#12540;&#12503;&#30011;&#38754;&#34920;&#31034;</text><line style="stroke:#000000;stroke-width:1.0;stroke-dasharray:2.0,2.0;" x1="10" x2="332.5" y1="500.0859" y2="500.0859"/><text fill="#000000" font-family="sans-serif" font-size="11" font-weight="bold" lengthAdjust="spacing" textLength="53.375" x="15" y="511.5049">[&#30331;&#37682;&#22833;&#25943;]</text><line style="stroke:#181818;stroke-width:1.0;" x1="175.5" x2="217.5" y1="537.2734" y2="537.2734"/><line style="stroke:#181818;stroke-width:1.0;" x1="217.5" x2="217.5" y1="537.2734" y2="550.2734"/><line style="stroke:#181818;stroke-width:1.0;" x1="176.5" x2="217.5" y1="550.2734" y2="550.2734"/><polygon fill="#181818" points="186.5,546.2734,176.5,550.2734,186.5,554.2734,182.5,550.2734" style="stroke:#181818;stroke-width:1.0;"/><text fill="#000000" font-family="sans-serif" font-size="13" lengthAdjust="spacing" textLength="115" x="182.5" y="532.417">isSubmitting = false</text><line style="stroke:#181818;stroke-width:1.0;" x1="175.5" x2="217.5" y1="580.625" y2="580.625"/><line style="stroke:#181818;stroke-width:1.0;" x1="217.5" x2="217.5" y1="580.625" y2="593.625"/><line style="stroke:#181818;stroke-width:1.0;" x1="176.5" x2="217.5" y1="593.625" y2="593.625"/><polygon fill="#181818" points="186.5,589.625,176.5,593.625,186.5,597.625,182.5,593.625" style="stroke:#181818;stroke-width:1.0;"/><text fill="#000000" font-family="sans-serif" font-size="13" lengthAdjust="spacing" textLength="98" x="182.5" y="575.7686">isLoading = false</text><line style="stroke:#181818;stroke-width:1.0;" x1="175.5" x2="217.5" y1="623.9766" y2="623.9766"/><line style="stroke:#181818;stroke-width:1.0;" x1="217.5" x2="217.5" y1="623.9766" y2="636.9766"/><line style="stroke:#181818;stroke-width:1.0;" x1="176.5" x2="217.5" y1="636.9766" y2="636.9766"/><polygon fill="#181818" points="186.5,632.9766,176.5,636.9766,186.5,640.9766,182.5,636.9766" style="stroke:#181818;stroke-width:1.0;"/><text fill="#000000" font-family="sans-serif" font-size="13" lengthAdjust="spacing" textLength="75" x="182.5" y="619.1201">console.error</text><!--SRC=[bPDDIm916CVlyoc6kkWXFu1Gq8j9416PXuxZxfCER3lBp6nwTY73EdGm92XwGIBeKDObjF33RAlsBPfDQryoiBtDpl_tpFF_ppEIIWDml_7WrJh3tfjNl_9gjuEJ0vnOtieiRcUI215DCexp0ZX21LR1C_arhzsQmRFhj5YIIuODo29SKerQn9GuKx705B01vKrIZ6wjCw9JiuZ0rB6gD2wN0xvFDGZLp780Cq8INH_NZS6hb4E1Y32z0uR1oX7SLmdb8aJxVl3SGgnTdCQ3i-x7yPFhdBlLdkiyz-klxoz7VWXqdqY8sqCnVb95Ad9sOOzAgRpZUIovIcmgR9pNtyot88svCkPVq6zD49sI1Oj4Cl0KIXU5v0h-2Mx4hZ0jp0Mn1hgv-95gmpOaqc425ZbjKWQ_uKYlXXnVL__mnAjVuiH8dnAsfe4GIOJLDqNKdDaIUCgoHIcHLGlB_p-PLlZNwAInMtrqdNlNUNMTvg3H_RYu6LxV3LeT18QoC-hBQxNxfyrfsuWDoYvHXQPdWsdv5wWnKp03Ki0vu_xxGE6uO-F-2G00]--></g></svg>